<svg width="184" height="49" viewBox="0 0 184 49" fill="none" xmlns="http://www.w3.org/2000/svg">
<path d="M36.4115 10.8988C37.2926 11.7802 38.4134 12.3833 39.6345 12.633C40.8556 12.8827 42.1231 12.7681 43.2796 12.3034L48.1973 17.2184C49.2005 18.2256 49.2018 19.8563 48.1919 20.8662L20.8512 48.1905C20.3666 48.673 19.7106 48.9439 19.0267 48.9439C18.3428 48.9439 17.6868 48.673 17.2021 48.1905L12.2939 43.2742C12.7564 42.1171 12.8699 40.8499 12.6202 39.6291C12.3706 38.4083 11.7688 37.2873 10.8893 36.4046C10.0076 35.5235 8.88659 34.9207 7.66538 34.671C6.44418 34.4213 5.17653 34.5357 4.01974 35L0.808881 31.7878C0.569033 31.5484 0.378744 31.2641 0.24891 30.9512C0.119076 30.6382 0.0522461 30.3027 0.0522461 29.9639C0.0522461 29.625 0.119076 29.2895 0.24891 28.9766C0.378744 28.6636 0.569033 28.3793 0.808881 28.14L28.1454 0.811588C28.3847 0.571797 28.669 0.381606 28.982 0.251921C29.295 0.122237 29.6304 0.0556102 29.9692 0.0558631C30.308 0.0561161 30.6434 0.123243 30.9561 0.253395C31.2689 0.383547 31.5529 0.574162 31.7919 0.81431L35.0054 4.02789C34.541 5.18498 34.4267 6.45299 34.6767 7.67447C34.9266 8.89596 35.5299 10.0171 36.4115 10.8988Z" fill="#E13352"/>
<path d="M7.3773 25.2173L4.45227 28.1409C3.96899 28.6246 3.69718 29.2802 3.69641 29.964C3.69565 30.6477 3.96599 31.3039 4.44819 31.7887L5.18591 32.5251C6.49553 32.1729 7.87483 32.1722 9.1848 32.523C10.4948 32.8738 11.6891 33.5637 12.6475 34.5232C13.6065 35.4816 14.296 36.6758 14.6466 37.9855C14.9971 39.2952 14.9963 40.6741 14.6443 41.9834L17.2004 44.5464C17.6852 45.0296 18.3418 45.3007 19.0263 45.3002C19.7107 45.2997 20.3669 45.0276 20.8509 44.5437L23.8304 41.5669L7.3773 25.2173ZM25.7809 39.6178L39.607 25.7998L23.1499 9.45016L9.32913 23.2682L25.7809 39.6178ZM28.4895 20.5718C31.5452 23.6044 32.2257 27.8619 30.0153 30.0846C27.8008 32.31 23.5337 31.6512 20.4862 28.6214C17.4386 25.5889 16.7594 21.3286 18.9699 19.1059C21.1817 16.8873 25.442 17.5406 28.4895 20.5718ZM44.5506 17.218L41.9904 14.6578C40.6805 15.0099 39.301 15.0106 37.9908 14.6598C36.6806 14.309 35.486 13.6191 34.5274 12.6597C33.567 11.7013 32.8763 10.5066 32.525 9.19608C32.1737 7.88556 32.1742 6.50557 32.5265 5.19532L31.7902 4.45216C31.3052 3.97145 30.6497 3.70209 29.9668 3.70285C29.2839 3.70362 28.6291 3.97445 28.1451 4.45624L25.1017 7.49969L41.5602 23.848L44.5492 20.8604C45.5565 19.8572 45.5565 18.2252 44.5506 17.218Z" fill="#BB3352"/>
<path d="M59.0129 33.0325H62.8806V40.4544C61.8876 41.2035 60.7377 41.7785 59.431 42.1792C58.1244 42.5799 56.809 42.7803 55.4849 42.7803C53.5859 42.7803 51.8785 42.3795 50.3628 41.5781C48.847 40.7593 47.6536 39.6355 46.7825 38.2069C45.9288 36.7609 45.502 35.1319 45.502 33.32C45.502 31.5081 45.9288 29.8878 46.7825 28.4592C47.6536 27.0131 48.8557 25.8894 50.3889 25.088C51.922 24.2691 53.6468 23.8597 55.5633 23.8597C57.1661 23.8597 58.6209 24.1298 59.9276 24.6699C61.2342 25.2099 62.3318 25.9939 63.2204 27.0219L60.5025 29.5307C59.1958 28.1543 57.6191 27.4661 55.7724 27.4661C54.6051 27.4661 53.5684 27.71 52.6625 28.1979C51.7565 28.6857 51.0509 29.3739 50.5457 30.2624C50.0404 31.1509 49.7878 32.1701 49.7878 33.32C49.7878 34.4524 50.0404 35.4629 50.5457 36.3515C51.0509 37.24 51.7478 37.9369 52.6364 38.4421C53.5423 38.9299 54.5702 39.1739 55.7201 39.1739C56.9396 39.1739 58.0372 38.9125 59.0129 38.3899V33.0325Z" fill="#212529"/>
<path d="M73.2159 42.6757C71.7351 42.6757 70.4023 42.3708 69.2175 41.7611C68.0503 41.1339 67.1356 40.2715 66.4735 39.1739C65.8115 38.0763 65.4805 36.8306 65.4805 35.4368C65.4805 34.043 65.8115 32.7973 66.4735 31.6997C67.1356 30.6021 68.0503 29.7484 69.2175 29.1387C70.4023 28.5115 71.7351 28.1979 73.2159 28.1979C74.6968 28.1979 76.0209 28.5115 77.1882 29.1387C78.3555 29.7484 79.2702 30.6021 79.9322 31.6997C80.5943 32.7973 80.9253 34.043 80.9253 35.4368C80.9253 36.8306 80.5943 38.0763 79.9322 39.1739C79.2702 40.2715 78.3555 41.1339 77.1882 41.7611C76.0209 42.3708 74.6968 42.6757 73.2159 42.6757ZM73.2159 39.3307C74.2613 39.3307 75.115 38.9822 75.777 38.2853C76.4565 37.571 76.7962 36.6215 76.7962 35.4368C76.7962 34.2521 76.4565 33.3113 75.777 32.6144C75.115 31.9001 74.2613 31.5429 73.2159 31.5429C72.1706 31.5429 71.3082 31.9001 70.6287 32.6144C69.9493 33.3113 69.6095 34.2521 69.6095 35.4368C69.6095 36.6215 69.9493 37.571 70.6287 38.2853C71.3082 38.9822 72.1706 39.3307 73.2159 39.3307Z" fill="#212529"/>
<path d="M85.9917 27.6229H80.1378V24.1733H96.0791V27.6229H90.2253V42.4667H85.9917V27.6229Z" fill="#212529"/>
<path d="M97.7633 28.4069H101.84V42.4667H97.7633V28.4069ZM99.8017 26.4469C99.0526 26.4469 98.4428 26.2291 97.9724 25.7936C97.502 25.358 97.2668 24.8179 97.2668 24.1733C97.2668 23.5287 97.502 22.9886 97.9724 22.5531C98.4428 22.1175 99.0526 21.8997 99.8017 21.8997C100.551 21.8997 101.161 22.1088 101.631 22.5269C102.101 22.9451 102.337 23.4677 102.337 24.0949C102.337 24.7744 102.101 25.3406 101.631 25.7936C101.161 26.2291 100.551 26.4469 99.8017 26.4469Z" fill="#212529"/>
<path d="M112.418 42.6757C110.92 42.6757 109.57 42.3708 108.368 41.7611C107.183 41.1339 106.251 40.2715 105.571 39.1739C104.909 38.0763 104.578 36.8306 104.578 35.4368C104.578 34.043 104.909 32.7973 105.571 31.6997C106.251 30.6021 107.183 29.7484 108.368 29.1387C109.57 28.5115 110.92 28.1979 112.418 28.1979C113.899 28.1979 115.189 28.5115 116.286 29.1387C117.401 29.7484 118.211 30.6283 118.717 31.7781L115.554 33.4768C114.823 32.1875 113.769 31.5429 112.392 31.5429C111.33 31.5429 110.45 31.8914 109.753 32.5883C109.056 33.2851 108.707 34.2347 108.707 35.4368C108.707 36.6389 109.056 37.5884 109.753 38.2853C110.45 38.9822 111.33 39.3307 112.392 39.3307C113.786 39.3307 114.84 38.686 115.554 37.3968L118.717 39.1216C118.211 40.2366 117.401 41.1077 116.286 41.7349C115.189 42.3621 113.899 42.6757 112.418 42.6757Z" fill="#212529"/>
<path d="M126.999 36.9525L125.039 38.8864V42.4667H120.962V23.0757H125.039V34.0517L130.997 28.4069H135.858L130.004 34.3653L136.38 42.4667H131.441L126.999 36.9525Z" fill="#212529"/>
<path d="M151.374 35.4891C151.374 35.5413 151.347 35.9072 151.295 36.5867H140.659C140.851 37.4578 141.304 38.1459 142.018 38.6512C142.732 39.1564 143.621 39.4091 144.683 39.4091C145.415 39.4091 146.06 39.3045 146.617 39.0955C147.192 38.869 147.724 38.5205 148.211 38.0501L150.381 40.4021C149.056 41.9179 147.123 42.6757 144.579 42.6757C142.994 42.6757 141.591 42.3708 140.371 41.7611C139.152 41.1339 138.211 40.2715 137.549 39.1739C136.887 38.0763 136.556 36.8306 136.556 35.4368C136.556 34.0604 136.878 32.8235 137.523 31.7259C138.185 30.6108 139.082 29.7484 140.215 29.1387C141.365 28.5115 142.645 28.1979 144.056 28.1979C145.433 28.1979 146.678 28.494 147.793 29.0864C148.908 29.6787 149.779 30.5324 150.407 31.6475C151.051 32.7451 151.374 34.0256 151.374 35.4891ZM144.082 31.2816C143.159 31.2816 142.384 31.5429 141.757 32.0656C141.129 32.5883 140.746 33.3026 140.607 34.2085H147.532C147.393 33.32 147.009 32.6144 146.382 32.0917C145.755 31.5516 144.988 31.2816 144.082 31.2816Z" fill="#212529"/>
<path d="M163.156 41.7872C162.755 42.0834 162.259 42.3099 161.666 42.4667C161.092 42.606 160.482 42.6757 159.837 42.6757C158.165 42.6757 156.867 42.2489 155.943 41.3952C155.037 40.5415 154.584 39.2871 154.584 37.632V31.8565H152.415V28.7205H154.584V25.2971H158.661V28.7205H162.163V31.8565H158.661V37.5797C158.661 38.1721 158.809 38.6338 159.105 38.9648C159.419 39.2784 159.855 39.4352 160.412 39.4352C161.057 39.4352 161.605 39.261 162.058 38.9125L163.156 41.7872Z" fill="#212529"/>
<path d="M170.175 42.6757C169.007 42.6757 167.866 42.5363 166.751 42.2576C165.636 41.9614 164.748 41.5955 164.086 41.16L165.445 38.2331C166.072 38.6338 166.83 38.9648 167.718 39.2261C168.607 39.47 169.478 39.592 170.331 39.592C172.056 39.592 172.919 39.1651 172.919 38.3115C172.919 37.9107 172.683 37.6233 172.213 37.4491C171.743 37.2748 171.02 37.1267 170.044 37.0048C168.894 36.8306 167.945 36.6302 167.195 36.4037C166.446 36.1772 165.793 35.7765 165.235 35.2016C164.695 34.6267 164.425 33.8078 164.425 32.7451C164.425 31.8565 164.678 31.0725 165.183 30.3931C165.706 29.6962 166.455 29.1561 167.431 28.7728C168.424 28.3895 169.591 28.1979 170.933 28.1979C171.926 28.1979 172.91 28.3111 173.886 28.5376C174.879 28.7467 175.698 29.0428 176.342 29.4261L174.983 32.3269C173.746 31.63 172.396 31.2816 170.933 31.2816C170.061 31.2816 169.408 31.4035 168.973 31.6475C168.537 31.8914 168.319 32.205 168.319 32.5883C168.319 33.0238 168.554 33.3287 169.025 33.5029C169.495 33.6771 170.244 33.8427 171.272 33.9995C172.422 34.1911 173.363 34.4002 174.095 34.6267C174.826 34.8357 175.462 35.2277 176.002 35.8027C176.543 36.3776 176.813 37.179 176.813 38.2069C176.813 39.078 176.551 39.8533 176.029 40.5328C175.506 41.2123 174.739 41.7436 173.729 42.1269C172.736 42.4928 171.551 42.6757 170.175 42.6757Z" fill="#212529"/>
<path d="M178.805 24.1733H183.666L182.856 36.1163H179.615L178.805 24.1733ZM181.236 42.6757C180.521 42.6757 179.92 42.4492 179.432 41.9963C178.962 41.5259 178.727 40.9596 178.727 40.2976C178.727 39.6355 178.962 39.0867 179.432 38.6512C179.903 38.1982 180.504 37.9717 181.236 37.9717C181.967 37.9717 182.568 38.1982 183.039 38.6512C183.509 39.0867 183.744 39.6355 183.744 40.2976C183.744 40.9596 183.501 41.5259 183.013 41.9963C182.542 42.4492 181.95 42.6757 181.236 42.6757Z" fill="#212529"/>
</svg>
